<?xml version="1.0" encoding="utf-8"?>
<!-- Generator: Adobe Illustrator 28.3.0, SVG Export Plug-In . SVG Version: 6.00 Build 0)  -->
<svg version="1.1" id="Layer_1" xmlns="http://www.w3.org/2000/svg" xmlns:xlink="http://www.w3.org/1999/xlink" x="0px" y="0px"
	 viewBox="0 0 1007.2 362.7" style="enable-background:new 0 0 1007.2 362.7;" xml:space="preserve">
<style type="text/css">
	.st0{fill:#020202;}
	.st1{fill:#010101;}
	.st2{fill:#3598DA;}
	.st3{fill:#5EADE1;}
	.st4{fill:#85C1AE;}
	.st5{fill:#2A80B9;}
	.st6{fill:#040404;}
	.st7{fill:#0C0C0C;}
	.st8{fill:#080808;}
	.st9{fill:#0B0B0B;}
	.st10{fill:#050505;}
	.st11{fill:#070707;}
	.st12{fill:#060606;}
</style>
<g>
	<g>
		<path class="st0" d="M346.9,167.3c2.3,13.1,4.7,26.2,7,39.3c0.2,0,0.3,0.1,0.5,0.1c2.3-13,4.7-26.1,7-39.3c8.5,0,16.9,0,25.6,0
			c0,22.7,0,45.5,0,68.5c-5.5,0-11,0-16.8,0c0-15.7,0-31.4,0-47.1c-0.2,0-0.4-0.1-0.7-0.1c-2.9,15.8-5.9,31.5-8.9,47.3
			c-4.4,0-8.6,0-13.1,0c-3-16.1-6-32.2-9-48.4c-0.2,0-0.3,0-0.5,0.1c0,16,0,32.1,0,48.3c-5.7,0-11.1,0-16.8,0c0-22.8,0-45.7,0-68.6
			C329.7,167.3,338,167.3,346.9,167.3z"/>
		<path class="st1" d="M362.5,255.5c5.8,0,11.4,0,17.2,0c0,1.8,0,3.4,0,5.8c5.3-4.4,10.8-7.1,17.4-6.7c6.6,0.4,11.8,3.3,15.5,9
			c3.1-4.2,6.7-7.5,11.8-8.5c11.5-2.3,21.2,2.2,21.7,15.5c0.4,11.3,0.1,22.7,0.1,34.2c-5.9,0-11.6,0-17.7,0c0-5.2,0-10.4,0-15.6
			c0-4.4,0.2-8.9-0.2-13.3c-0.5-5.9-4-8.6-9-7.4c-3.2,0.7-5.7,3.7-5.9,8c-0.3,5.3-0.3,10.6-0.3,15.9c0,4,0,8.1,0,12.3
			c-5.9,0-11.6,0-17.7,0c0-7.7,0-15.5,0-23.3c0-2.4-0.1-4.8-0.5-7.2c-0.7-4.4-2.5-6.1-6.2-6.3c-4.2-0.3-6.7,1.3-7.8,5.6
			c-0.7,2.7-0.9,5.5-0.9,8.3c-0.1,7.6,0,15.2,0,22.9c-5.9,0-11.5,0-17.3,0C362.5,288.5,362.5,272.1,362.5,255.5z"/>
		<path class="st1" d="M503.9,263.4c3.1-4.5,7.2-7.8,12.7-8.6c10.7-1.6,19.9,2.7,20.4,15.2c0.5,11.1,0.2,22.2,0.2,33.3
			c0,0.5-0.1,0.9-0.1,1.5c-5.8,0-11.4,0-17.4,0c0-2.3,0-4.6,0-6.9c0-6.9,0.1-13.9-0.2-20.8c-0.2-6.3-3.2-9.3-8.3-8.6
			c-3.5,0.4-5.9,2.8-6.7,7c-0.4,2-0.5,4-0.5,6c-0.1,7.7,0,15.4,0,23.3c-5.8,0-11.4,0-17.5,0c0-0.9,0-1.9,0-2.9
			c-0.2-9-0.1-17.9-0.6-26.9c-0.3-5.2-2.5-6.9-6.7-7c-4.4-0.1-7.1,2.1-7.7,6.9c-0.5,3.8-0.5,7.7-0.5,11.5c-0.1,6.1,0,12.1,0,18.4
			c-5.9,0-11.6,0-17.5,0c0-16.4,0-32.8,0-49.3c5.8,0,11.5,0,17.3,0c0,1.7,0,3.3,0,5.3C482.6,252.5,493.7,251.4,503.9,263.4z"/>
		<path class="st0" d="M391.4,167.3c6,0,11.7,0,17.9,0c0,1,0,2,0,3c0,15.5,0,31.1,0,46.6c0,1.5,0.2,3.1,0.5,4.6
			c0.5,2.6,2.3,3.7,4.8,3.8c2.5,0,4.3-1.2,4.8-3.7c0.3-1.4,0.4-2.9,0.4-4.3c0-15.5,0-31.1,0-46.6c0-1,0-2.1,0-3.3c6.1,0,11.9,0,18,0
			c0,0.8,0.1,1.6,0.1,2.5c0,14.8,0.1,29.5-0.1,44.3c0,3.7-0.7,7.5-1.7,11.1c-2,6.7-6.7,10.8-13.8,11.4c-5.1,0.4-10.4,0.4-15.5,0
			c-7.3-0.6-12-4.9-14.1-11.9c-0.7-2.3-1.4-4.7-1.4-7.1C391.4,201,391.4,184.3,391.4,167.3z"/>
		<path class="st0" d="M442.5,215.8c5.9,0,11.6,0,17.4,0c0.1,1.5,0.2,3,0.5,4.5c0.5,3.1,2.6,4.9,5.5,5c2.8,0.1,5-1.8,5.6-4.8
			c0.6-3.2-0.1-6-2.9-7.9c-1.4-1-2.9-1.9-4.5-2.6c-2.3-1.1-4.6-1.9-6.9-2.9c-11-4.7-15.4-12.8-13.4-24.6c1.7-9.5,6.6-14.8,16.3-16
			c4.8-0.6,9.9-0.5,14.6,0.4c8.1,1.4,12.5,6.8,13.4,15.2c0.2,1.6,0.2,3.2,0.3,5.1c-5.7,0-11.1,0-16.8,0c-0.1-1.1-0.1-2.3-0.3-3.5
			c-0.5-3.7-2.6-5.7-5.6-5.4c-3,0.3-5.1,3.1-4.9,6.5c0.2,2.6,1.4,4.7,3.6,5.9c3.5,1.8,7.1,3.5,10.7,5.1c6.6,2.9,12.3,6.6,14.3,14
			c1.4,5.2,1.1,10.5-0.6,15.6c-2,6-6.6,9.1-12.3,10.7c-6.9,1.9-14,1.9-20.9,0.3c-8.8-1.9-12.9-7.7-13.2-17.8
			C442.5,217.6,442.5,216.8,442.5,215.8z"/>
		<path class="st0" d="M612.3,283.3c-12.3,0-24.3,0-36.3,0c-0.6,4.7,1.2,8.4,4.8,10.1c4.2,1.9,9.5,1.3,12.3-1.8
			c1.3-1.4,2.5-1.8,4.2-1.7c4.7,0.1,9.4,0,14.3,0c-2,6.8-5.8,11.7-12.1,14.5c-11.6,5.1-27.2,2.7-35-5.8c-7.7-8.4-8.4-18.3-5-28.6
			c3.3-9.8,10.8-14.8,20.7-15.9c4.1-0.5,8.3-0.4,12.3,0.3c12,2.4,19.2,11.5,19.7,24.1C612.4,279.9,612.3,281.4,612.3,283.3z
			 M595.5,272.9c-0.6-4.9-4.9-8.2-10.4-7.9c-4.9,0.2-8.4,3.4-8.6,7.9C582.8,272.9,589.2,272.9,595.5,272.9z"/>
		<path class="st0" d="M914.4,283.3c-12.2,0-24.3,0-36.3,0c-0.6,4.4,1.1,8.3,4.4,9.9c4,2,9.6,1.5,12.4-1.5c1.5-1.6,3-2,5-1.9
			c4.4,0.1,8.9,0,13.7,0c-1.7,6.3-5,11.2-10.7,13.8c-11.1,5-22.2,4.8-32.6-1.9c-9-5.8-12.6-17.5-9.6-29.4
			c2.5-10.2,10.6-17.1,21.3-18.5c5.7-0.7,11.2-0.5,16.6,1.5c10.6,4,14.9,12.5,15.8,23.1C914.5,279.9,914.4,281.4,914.4,283.3z
			 M897.6,272.9c-0.7-5.1-5.3-8.4-10.9-7.9c-4.7,0.4-8.1,3.7-8,7.9C885,272.9,891.3,272.9,897.6,272.9z"/>
		<path class="st2" d="M914.9,25.9c0,6.5,0.1,12.7-0.1,19c0,0.8-1.1,1.9-2,2.4c-6.8,3.9-13.6,7.7-20.4,11.5
			c-0.8,0.4-1.5,0.9-2.5,1.5c0.8,0.6,1.3,1,1.9,1.4c7,3.9,13.9,7.9,20.9,11.8c1.7,0.9,2.3,2,2.2,3.9c-0.1,5.8,0,11.5,0,17.8
			c-2.2-1.1-3.9-2-5.5-2.9c-13.2-7.3-26.5-14.7-39.7-22c-1.7-0.9-2.3-1.9-2.2-3.8c0.2-4.2,0-8.5,0.1-12.7c0-1,0.6-2.4,1.3-2.8
			c15-8.4,30-16.7,45.1-24.9C914,25.9,914.3,26,914.9,25.9z"/>
		<path class="st3" d="M959.2,94.9c7,3.8,13.4,7.3,19.8,10.9c8.4,4.7,16.9,9.4,25.3,14c1.7,0.9,2.5,2,2.4,4.1
			c-0.2,4.2,0,8.5-0.1,12.7c0,0.9-0.7,2.3-1.5,2.7c-14.9,8.3-29.9,16.6-44.8,24.8c-0.2,0.1-0.4,0.1-1.1,0.1c0-1.7,0-3.3,0-5
			c0-4.2,0.1-8.5-0.1-12.7c-0.1-1.9,0.6-2.9,2.3-3.8c7.5-4.1,15-8.4,22.9-12.8c-2.6-1.5-4.8-2.8-7.1-4.1c-5.3-3-10.6-6-15.9-8.9
			c-1.5-0.8-2.2-1.8-2.2-3.6C959.3,107.3,959.2,101.4,959.2,94.9z"/>
		<path class="st0" d="M782.2,255.4c6.5,0,12.5-0.1,18.4,0.1c0.8,0,1.9,1,2.3,1.9c3.4,7.1,6.7,14.3,10,21.4c0.2,0.4,0.4,0.8,0.9,1.6
			c3.5-7.5,7-14.6,10.2-21.8c1.1-2.4,2.4-3.4,5.1-3.3c5.2,0.3,10.4,0.1,16.1,0.1c-2.2,4.4-4.2,8.3-6.3,12.3
			c-6.1,11.8-12.3,23.5-18.4,35.3c-0.7,1.3-1.4,2.1-3,2c-3.3-0.2-7.2,0.9-9.6-0.5c-2.3-1.3-3.2-5.2-4.6-8.1
			C796.3,282.9,789.4,269.4,782.2,255.4z"/>
		<path class="st4" d="M844.5,211.8c3.7-7.9,7.3-15.2,10.6-22.5c0.8-1.8,1.7-2.7,3.8-2.6c5.5,0.2,11,0.1,17,0.1
			c-1.4,2.7-2.5,5-3.7,7.3c-6.9,13.2-13.8,26.3-20.5,39.5c-1,1.9-2.1,2.4-4.2,2.7c-6.8,1-10.6-1.4-13.5-8c-6-13.3-13.1-26-19.8-38.9
			c-0.3-0.7-0.6-1.4-1.2-2.6c5,0,9.7,0.4,14.3-0.1c4.3-0.4,6.3,1.2,7.9,5.1C837.9,198.4,841.2,204.8,844.5,211.8z"/>
		<path class="st0" d="M685,301.6c2.4-4.6,4.5-8.7,6.3-12.2c4.4,1.5,8.6,3,12.9,4.2c1.4,0.4,3.3,0,4.7-0.7c1-0.5,1.9-2,2-3.1
			c0-0.9-1-2.3-2-2.7c-1.7-0.8-3.7-1.1-5.5-1.6c-1.2-0.3-2.5-0.5-3.7-0.9c-5.1-1.6-9.5-4-10.4-9.9c-1-6.4,0.5-11.9,5.6-16.1
			c5.1-4.2,11.3-5.3,17.7-4.9c4.8,0.3,9.6,1.6,14.9,2.5c-2.3,4.4-4.2,8.1-6,11.8c-2.9-0.7-5.5-1.4-8.2-2c-0.8-0.2-1.7-0.1-2.6,0
			c-2,0.3-4.1,0.8-4.2,3.2c-0.1,2.5,2,3,3.9,3.5c2.3,0.6,4.7,1,7,1.7c6,1.8,10.4,5.2,11.1,11.8c0.8,6.6-1.3,12.3-6.9,16.1
			c-7.7,5.3-16.3,5.7-25,3.6C692.9,304.8,689.2,303.1,685,301.6z"/>
		<path class="st5" d="M691.9,129.9c-6.1,0-11.9,0-17.9,0c-2.8-7.2-5.5-14.4-8.5-22.2c-2.2,5.6-4.1,10.8-6.1,15.9
			c-2.4,6.4-2.4,6.4-9.1,6.4c-3.5,0-7,0-10.4,0c-0.2,0-0.4-0.1-1-0.2c0.3-0.9,0.6-1.7,0.9-2.6c4.4-10.5,8.8-21,13.1-31.5
			c0.7-1.6,1.4-2.4,3.3-2.4c6.2,0.1,12.4,0,18.6,0.1c1,0,2.4,0.8,2.8,1.6c4.8,11.2,9.4,22.4,14.1,33.6
			C691.8,129,691.8,129.3,691.9,129.9z"/>
		<path class="st5" d="M762.9,130c-5.7,0-11.3,0.1-16.8-0.1c-0.7,0-1.6-1.2-1.9-2c-2.2-5.5-4.3-11.1-6.4-16.7
			c-0.3-0.9-0.7-1.7-1.4-3.3c-1.1,3-2.1,5.3-3,7.7c-1.6,4.1-3.1,8.3-4.8,12.4c-0.4,0.9-1.7,1.9-2.5,2c-5.3,0.2-10.6,0.1-16.2,0.1
			c0.3-0.9,0.4-1.6,0.7-2.2c4.4-10.7,8.9-21.3,13.3-32c0.7-1.8,1.6-2.4,3.6-2.4c6.1,0.1,12.2,0,18.3,0.1c1,0,2.4,0.8,2.8,1.6
			c4.8,11.2,9.5,22.6,14.2,33.9C762.8,129.2,762.8,129.5,762.9,130z"/>
		<path class="st6" d="M650.6,304.8c-6.1,0-11.8,0-17.7,0c0-16.4,0-32.7,0-49.2c5.8,0,11.7,0,17.7,0c0,2.3,0,4.5,0,7.3
			c5.1-7,11.6-9.5,19.6-8.4c0,5.6,0,11.1,0,16.4c-2.3-0.5-4.6-1.2-6.8-1.3c-7.8-0.4-12.5,4-12.7,12
			C650.4,289.3,650.6,296.9,650.6,304.8z"/>
		<path d="M322.4,304.8c0-16.5,0-32.8,0-49.3c5.8,0,11.5,0,17.3,0c0,16.4,0,32.8,0,49.3C333.9,304.8,328.2,304.8,322.4,304.8z"/>
		<path d="M748.2,255.6c5.8,0,11.5,0,17.3,0c0,16.5,0,32.8,0,49.3c-5.7,0-11.4,0-17.3,0C748.2,288.5,748.2,272.1,748.2,255.6z"/>
		<path class="st7" d="M322.7,336.1c0-7.8,0-15.6,0-23.5c3,0,5.8,0,8.8,0c0.7,3.9,1.5,7.8,2.2,11.6c0.2,0,0.4,0,0.6,0
			c0.7-3.8,1.4-7.6,2.1-11.6c2.9,0,5.8,0,8.8,0c0,7.7,0,15.5,0,23.4c-1.8,0-3.6,0-5.8,0c0-4.1,0-8.3,0-12.5c-0.2,0-0.4,0-0.7-0.1
			c-0.8,4.2-1.6,8.4-2.5,12.7c-1.5,0-2.9,0-4.6,0c-0.8-4.3-1.7-8.7-2.5-13c-0.2,0-0.3,0-0.5,0c0,4.3,0,8.5,0,12.9
			C326.6,336.1,324.8,336.1,322.7,336.1z"/>
		<path class="st8" d="M465.7,312.6c2.2,0,4.3,0,6.7,0c1.1,3.8,2.2,7.7,3.3,11.6c0.2,0,0.4-0.1,0.6-0.1c0-3.7,0-7.4,0-11.4
			c2.1,0,3.9,0,6,0c0,7.8,0,15.6,0,23.3c-6.8,1-6.8,1-8.5-5.3c-0.6-2.2-1.2-4.3-2.3-6.4c0,3.9,0,7.7,0,11.8c-2,0-3.8,0-5.7,0
			C465.7,328.4,465.7,320.6,465.7,312.6z"/>
		<path class="st6" d="M671,324c0,4,0,7.9,0,12.1c-2,0-3.9,0-5.9,0c0-7.8,0-15.6,0-23.5c2.3,0,4.5,0,6.8,0c1.1,3.8,2.1,7.6,3.2,11.4
			c0.2,0,0.4,0,0.6-0.1c0-3.8,0-7.5,0-11.4c2.1,0,3.9,0,5.9,0c0,7.8,0,15.5,0,23.5c-2.2,0-4.3,0-6.8,0c-1.1-3.9-2.3-8-3.5-12.1
			C671.2,323.9,671.1,324,671,324z"/>
		<path class="st9" d="M454.6,336.1c-2.4,0-4.6,0-7,0c-0.1-2.3-0.2-4.5-0.3-6.6c-0.1-2-1-3-3.4-2.3c0,2.9,0,5.9,0,8.9
			c-2.2,0-4.2,0-6.3,0c0-7.8,0-15.6,0-23.6c3.7,0,7.4-0.1,11,0c2.4,0.1,4.3,1.3,4.9,3.8c0.7,3,0.7,6-2.4,8
			C455.8,327.3,451.9,332.5,454.6,336.1z M443.9,317.3c0,1.7,0,3.3,0,4.9c2.3,0.6,3.5-0.4,3.6-2.5
			C447.5,317.5,446.1,316.7,443.9,317.3z"/>
		<path class="st9" d="M521.2,312.6c2.2,0,4.1,0,6.2,0c0,5.1,0,10.1,0,15.1c0,0.9-0.2,1.8,0.1,2.6c0.3,0.7,1.1,1.3,1.7,1.9
			c0.6-0.6,1.4-1.1,1.6-1.7c0.3-1.2,0.2-2.5,0.2-3.7c0-4.7,0-9.4,0-14.2c2.1,0,4,0,5.9,0c0,6.3,0.2,12.5-0.1,18.7
			c-0.1,3-2.2,4.7-5.3,5.2c-7.3,1.1-10.4-1.4-10.4-8.7C521.2,322.8,521.2,317.8,521.2,312.6z"/>
		<path class="st10" d="M575.5,312.5c3.5,0,6.8-0.1,10.2,0c2.7,0.1,4.9,1.2,5.7,4c1,3.3,0,5.9-2.7,7.9c4.8,2.8,1.5,7.9,3.6,11.7
			c-2.2,0-4.3,0-6.8,0c-0.1-2-0.4-4.1-0.4-6.2c0-2.3-0.8-3.5-3.5-2.9c0,2.9,0,5.9,0,9c-2.1,0-4.1,0-6.2,0
			C575.5,328.3,575.5,320.5,575.5,312.5z M581.7,322.4c2.1,0.3,3.5-0.2,3.5-2.6c0-2.4-1.4-2.8-3.5-2.5
			C581.7,318.9,581.7,320.6,581.7,322.4z"/>
		<path class="st11" d="M384.2,336.2c0-8.1,0-15.7,0-23.6c3.6,0,7.2-0.2,10.7,0.1c2.8,0.2,4.9,2,5.1,4.7c0.3,4.7,0.4,9.4,0,14
			c-0.3,3.1-2.8,4.7-6,4.8C390.8,336.3,387.6,336.2,384.2,336.2z M390.6,331.5c2.2,0.6,3.3-0.4,3.4-2.2c0.2-3.3,0.2-6.7,0-10
			c-0.1-1.8-1.4-2.7-3.4-2C390.6,322,390.6,326.7,390.6,331.5z"/>
		<path class="st10" d="M373.2,324.4c-0.1,1.9-0.2,3.7-0.5,5.5c-0.7,4.7-3.3,6.9-8.1,6.9c-4.9,0-7.6-2.1-8-6.9
			c-0.3-3.7-0.3-7.5,0-11.2c0.5-4.5,3.3-6.6,8-6.6c4.6,0,7.4,2.2,8.1,6.6C373,320.5,373.1,322.5,373.2,324.4z M362.5,324.4
			c0.1,2,0.1,4.1,0.5,6c0.1,0.7,1.1,1.2,1.7,1.9c0.6-0.6,1.6-1.1,1.6-1.7c0.1-4.1,0.1-8.3,0-12.4c0-0.6-1-1.1-1.6-1.7
			c-0.6,0.6-1.6,1.1-1.7,1.8C362.6,320.3,362.7,322.3,362.5,324.4z"/>
		<path class="st0" d="M824.7,312.5c3.2,0,6.3-0.1,9.4,0c3.5,0.1,5.9,1.8,6.2,5.3c0.4,4.5,0.4,9-0.1,13.5c-0.3,3.2-2.6,4.8-5.8,4.9
			c-3.2,0.1-6.3,0-9.7,0C824.7,328.3,824.7,320.6,824.7,312.5z M830.8,317.3c0,4.8,0,9.5,0,14.3c2.6-0.1,3.4-0.5,3.5-2.5
			c0.2-3.2,0.2-6.4,0-9.5C834.2,317.7,833,316.6,830.8,317.3z"/>
		<path class="st6" d="M869,324.4c0.2-2.2,0.3-4.1,0.7-6c1-4.6,3.5-6.5,8.2-6.4c4.5,0.1,7.1,2,7.6,6.6c0.5,4,0.4,8.1-0.1,12
			c-0.5,4.2-3.2,6-7.8,6c-4.5,0-6.9-1.7-7.8-5.7C869.3,328.8,869.2,326.4,869,324.4z M879.8,324.6c-0.2-2.3-0.2-4.3-0.5-6.3
			c-0.1-0.7-1.1-1.2-1.7-1.8c-0.5,0.6-1.5,1.1-1.5,1.7c-0.1,4.1-0.1,8.2,0,12.4c0,0.6,1,1.5,1.6,1.6c0.5,0,1.5-0.9,1.6-1.5
			C879.6,328.6,879.6,326.5,879.8,324.6z"/>
		<path class="st0" d="M796.9,312.6c2.2,0,4.1,0,6.3,0c0,5.8-0.1,11.6,0.1,17.3c0,0.8,1,1.5,1.5,2.3c0.6-0.8,1.4-1.5,1.8-2.4
			c0.3-0.5,0.1-1.3,0.1-2c0-5,0-10,0-15.2c2.1,0,4.1,0,6.2,0c0,6,0.3,12-0.1,18c-0.3,4.4-3.1,6.1-8,6c-5-0.1-7.5-2-7.8-6.6
			C796.7,324.3,796.9,318.6,796.9,312.6z"/>
		<path class="st6" d="M708.5,320c-1.8,0-3.6,0-5.7,0c-0.1-0.5,0-1.1-0.3-1.5c-0.5-0.7-1.1-1.3-1.7-2c-0.6,0.7-1.7,1.4-1.7,2.2
			c-0.2,3.5-0.3,7.1-0.1,10.6c0,1,1.1,1.9,1.7,2.9c0.7-1,1.4-2,2-3c0.2-0.4,0-0.9,0-1.5c-3.3-0.2-1.8-2.5-1.9-4.3c2.7,0,5.1,0,7.7,0
			c0,4.2,0,8.3,0,13c-1.4-0.3-2.8-0.7-4.2-0.9c-0.5-0.1-1.1,0.1-1.7,0.4c-5.3,2.2-9.5,0.1-10-5.6c-0.4-4.2-0.3-8.5,0.3-12.6
			c0.6-4.3,4.8-6.4,9.6-5.6C706.9,312.9,708.8,315.3,708.5,320z"/>
		<path class="st12" d="M761.3,319.2c-0.5,0.1-0.7,0.2-1,0.2c-1.4,0-2.9,0-4.3,0c-0.2-0.2-0.3-0.3-0.4-0.5c-0.6-0.8-1.3-1.7-1.9-2.5
			c-0.5,0.5-1.5,1.1-1.4,1.4c0.3,1.1,0.7,2.3,1.6,3c1,0.8,2.4,1.1,3.7,1.7c3.5,1.7,5,4.4,4.5,8.2c-0.5,3.5-2.3,5.3-6.5,5.8
			c-1.8,0.2-3.7,0.1-5.4-0.2c-3.2-0.6-4.3-2.4-4.5-6.9c1.9,0,3.8,0,5.2,0c1.1,1.1,2,2.1,3,2.9c0.1,0.1,1.7-1.3,1.6-1.5
			c-0.7-1.2-1.5-2.5-2.5-3.4c-0.6-0.6-1.7-0.8-2.6-1.2c-3.5-1.6-5-4.4-4.4-8.2c0.6-3.5,2.5-5.3,6.5-5.9
			C757.9,311.3,760.9,313.7,761.3,319.2z"/>
		<path class="st10" d="M896.6,329.3c1.9,0,3.7,0,5.5,0c0.1,0.2,0.2,0.4,0.4,0.7c0.6,0.8,1.3,1.6,2,2.5c0.6-0.5,1.8-1.1,1.7-1.5
			c-0.2-1.1-0.7-2.3-1.5-3.1c-0.9-0.8-2.2-1-3.4-1.6c-3.6-1.7-5.1-4.4-4.5-8.1c0.6-3.9,2.7-5.7,6.9-6.1c5.6-0.5,8.4,1.9,8.5,7.3
			c-1.8,0-3.6,0-5,0c-1-1.1-1.8-2-2.6-2.8c-0.5,0.5-1.5,1.2-1.5,1.4c0.6,1.2,1.2,2.4,2.1,3.3c0.8,0.7,2.1,0.9,3.1,1.4
			c3.7,1.7,5.1,4.6,4.4,8.8c-0.5,3-2.5,4.7-6.4,5.1c-1.8,0.2-3.7,0.1-5.4-0.3C897.6,335.6,896.4,333.5,896.6,329.3z"/>
		<path class="st10" d="M636.7,319.4c-2.9,0-4.7,0-5.9,0c-1-1.2-1.8-2-2.5-2.9c-0.5,0.5-1.6,1.1-1.5,1.3c0.4,1.1,0.8,2.4,1.7,3.2
			c0.8,0.7,2.1,0.9,3.1,1.4c3.9,1.8,5.4,4.3,4.8,8.5c-0.5,3.5-2.4,5.1-6.9,5.7c-6.2,0.8-9.3-1.4-9.5-7.4c1,0,2,0,3,0c1,0,1.9,0,3,0
			c0.1,0.5,0,1,0.2,1.2c0.5,0.7,1.1,1.4,1.8,1.8c0.3,0.2,1.5-0.5,1.5-0.8c0.1-0.9,0.2-2.3-0.4-2.8c-1-1-2.4-1.5-3.7-2.1
			c-3-1.3-5.1-3.1-5.1-6.6c0-2.8,0.4-5.5,3.3-6.8c3.3-1.6,6.9-1.7,9.9,0.5C635,314.6,635.5,317,636.7,319.4z"/>
		<path class="st6" d="M554.9,336.2c-2.3,0-4.2,0-6.3,0c0-7.8,0-15.5,0-23.5c3.5,0,7.1-0.3,10.7,0.1c3.5,0.4,5.5,3.6,5.3,7.5
			c-0.2,4-2.1,6.3-5.7,6.9c-1.3,0.2-2.6,0.3-4.1,0.4C554.9,330.3,554.9,333.1,554.9,336.2z M555,322.7c2.4,0.1,3.3-1.1,3.1-3.2
			c-0.2-1.8-1.1-2.7-3.1-2.2C555,319.1,555,320.9,555,322.7z"/>
		<path d="M412.3,312.6c4.6,0,9.1,0,13.7,0c0,1.7,0,3.3,0,5.1c-2.6,0-5,0-7.6,0c0,1.4,0,2.5,0,3.8c2.4,0,4.6,0,7.1,0
			c0,1.7,0,3.2,0,4.9c-2.3,0-4.6,0-7,0c0,1.6,0,2.9,0,4.4c2.5,0,5.1,0,7.8,0c0,1.8,0,3.4,0,5.2c-4.6,0-9.2,0-14,0
			C412.3,328.4,412.3,320.6,412.3,312.6z"/>
		<path class="st6" d="M771.4,317.7c0-1.8,0-3.4,0-5c5.1,0,10.2,0,15.4,0c0,1.6,0,3.2,0,5.1c-1.4,0-2.8,0-4.5,0c0,6.2,0,12.3,0,18.4
			c-2.2,0-4.1,0-6.3,0c0-6,0-12,0-18.2C774.4,317.9,773,317.8,771.4,317.7z"/>
		<path class="st12" d="M609.2,336.1c-2,0-3.9,0-5.9,0c0-7.8,0-15.6,0-23.5c1.9,0,3.8,0,5.9,0C609.2,320.3,609.2,328.1,609.2,336.1z
			"/>
		<path d="M653.4,336.2c-2.1,0-4,0-6.1,0c0-7.8,0-15.6,0-23.5c1.9,0,3.9,0,6.1,0C653.4,320.4,653.4,328.2,653.4,336.2z"/>
		<path class="st12" d="M852,312.6c2.3,0,4.2,0,6.4,0c0,4,0,7.9,0,11.8c0,3.8,0,7.7,0,11.7c-2.1,0-4.1,0-6.4,0c0-3.9,0-7.8,0-11.7
			C852,320.5,852,316.7,852,312.6z"/>
	</g>
</g>
</svg>
